<?xml version="1.0" standalone="no"?><!DOCTYPE svg PUBLIC "-//W3C//DTD SVG 1.1//EN" "http://www.w3.org/Graphics/SVG/1.1/DTD/svg11.dtd"><svg t="1776848021746" class="icon" viewBox="0 0 1024 1024" version="1.1" xmlns="http://www.w3.org/2000/svg" p-id="21033" xmlns:xlink="http://www.w3.org/1999/xlink" width="32" height="32"><path d="M205.89 185.184l84.73 734.652c203.324 75.035 403.025 27.829 447.802 0l79.892-732.232c-141.608-21.788-481.715-20.579-612.424-2.42z" fill="#DDDDDD" p-id="21034"></path><path d="M867.929 198.093c-14.527-8.47 1.201-16.939-19.374-24.808 0.606-41.147-2.411-40.547-6.651-41.757-23.598-1.209-39.335-3.63-39.335-3.63s1.21 5.449-14.52-82.903c-363.697-16.338-295.926-15.128-551.292-7.268-15.736 88.352-15.129 84.722-15.129 84.722s-15.738 2.42-39.336 3.63c-4.239 1.21-7.27 0.609-6.658 41.757-20.576 7.868-4.839 16.338-19.359 24.808 114.369 30.866 648.712 38.736 711.654 5.449z" fill="#595758" p-id="21035"></path><path d="M498.664 585.562c31.411 43.959 77.531 81.258 126.075 126.155 39.318-41.242 22.301-123.179-38.682-184.163-51.168-51.184-117.06-71.326-161.324-53.315 20.518 33.529 44.907 70.732 73.931 111.323z" fill="#8C8A89" p-id="21036"></path><path d="M624.94 717.967l-3.232-2.977c-10.354-9.584-20.603-18.819-30.619-27.847-36.553-32.929-71.064-64.03-96.059-98.987-26.789-37.482-51.73-75.035-74.1-111.594l-2.734-4.475 4.859-1.976c11.088-4.518 23.547-6.807 37.01-6.807 42.625 0 90.904 22.84 129.141 61.098 63.232 63.229 80.258 146.863 38.764 190.387l-3.03 3.178zM431.385 476.544c21.518 34.915 45.36 70.7 70.9 106.424 24.425 34.174 58.591 64.962 94.766 97.553 8.976 8.086 18.121 16.338 27.385 24.851 33.61-40.354 15.666-117.469-41.53-174.666-36.613-36.621-82.527-58.486-122.84-58.486-10.316-0.001-19.942 1.452-28.681 4.324z" fill="#FFFFFF" p-id="21037"></path><path d="M482.671 594.397c-26.436-36.569-49.73-75.879-69.785-114.022-4.37 2.769-8.547 5.841-12.273 9.575-40.825 40.807-23.988 123.832 37.613 185.425 50.288 50.278 114.841 70.699 159.063 54.3-38.304-39.45-78.66-85.548-114.618-135.278z" fill="#8C8A89" p-id="21038"></path><path d="M564.339 739.686c-42.637 0-90.963-22.858-129.262-61.159-30.407-30.396-51.16-66.903-58.438-102.775-7.408-36.532-0.016-68.122 20.824-88.952 3.565-3.578 7.711-6.815 13.037-10.193l4.082-2.585 2.246 4.282c22.286 42.374 45.648 80.553 69.455 113.482 32.258 44.61 70.684 89.963 114.195 134.782l4.771 4.91-6.415 2.376c-10.436 3.873-22.048 5.832-34.495 5.832z m-153.08-252.853c-2.896 2.055-5.328 4.1-7.495 6.269-18.653 18.645-25.182 47.37-18.385 80.883 6.931 34.174 26.821 69.063 55.997 98.24 36.673 36.663 82.643 58.547 122.963 58.547 8.791 0 17.098-1.053 24.765-3.15-41.767-43.445-78.769-87.369-110.042-130.613-23.228-32.13-46.022-69.177-67.803-110.176z" fill="#FFFFFF" p-id="21039"></path></svg>