<?xml version="1.0" standalone="no"?><!DOCTYPE svg PUBLIC "-//W3C//DTD SVG 1.1//EN" "http://www.w3.org/Graphics/SVG/1.1/DTD/svg11.dtd"><svg t="1776827852302" class="icon" viewBox="0 0 1024 1024" version="1.1" xmlns="http://www.w3.org/2000/svg" p-id="4895" width="32" height="32" xmlns:xlink="http://www.w3.org/1999/xlink"><path d="M469.6064 480.6656l1.8432 7.3728c14.7456 9.216 20.2752 27.648 40.5504 25.8048 18.432 1.8432 31.3344-16.5888 40.5504-29.4912-25.8048-5.5296-55.296 0-82.944-3.6864z m409.1904-53.4528c38.7072 11.0592 79.2576 53.4528 119.808 25.8048-36.864-58.9824-90.3168-114.2784-75.5712-193.536 1.8432-5.5296-1.8432-11.0592-7.3728-11.0592-23.9616 9.216-42.3936 33.1776-51.6096 55.296-3.6864 12.9024-5.5296 27.648-11.0592 40.5504-27.648-14.7456-57.1392-29.4912-92.16-25.8048-12.9024 1.8432-29.4912 1.8432-33.1776 14.7456 38.7072 20.2752 70.0416 55.296 94.0032 92.16 20.2752-3.6864 40.5504-1.8432 57.1392 1.8432z m-130.8672-221.184c-27.648-1.8432-51.6096 14.7456-77.4144 22.1184-1.8432-22.1184 14.7456-46.08 18.432-68.1984-42.3936 1.8432-75.5712 27.648-110.592 47.9232-9.216-18.432-16.5888-38.7072-23.9616-57.1392l46.08-44.2368 1.8432-5.5296L539.648 97.28c-11.0592-18.432-14.7456-40.5504-27.648-58.9824C500.9408 58.5728 495.4112 78.848 484.352 97.28l-62.6688 3.6864v3.6864l47.9232 42.3936c-5.5296 22.1184-11.0592 46.08-25.8048 62.6688-27.648-16.5888-55.296-35.0208-84.7872-46.08-7.3728-1.8432-18.432-5.5296-23.9616-1.8432 9.216 20.2752 22.1184 44.2368 20.2752 66.3552-12.9024-1.8432-22.1184-11.0592-35.0208-14.7456-14.7456-3.6864-31.3344-11.0592-44.2368-7.3728C300.032 237.3632 318.464 272.384 323.9936 311.0912c75.5712-36.864 165.888-57.1392 258.048-40.5504 44.2368 7.3728 82.944 23.9616 121.6512 38.7072 1.8432-38.7072 27.648-70.0416 44.2368-103.2192zM580.1984 368.2304H576.512c-7.3728 5.5296-31.3344 1.8432-22.1184 20.2752 14.7456-11.0592 35.0208-3.6864 49.7664 1.8432 5.5296-1.8432 3.6864-7.3728 3.6864-12.9024-5.5296-9.216-16.5888-9.216-27.648-9.216z m23.9616-38.7072c-11.0592-23.9616-35.0208-33.1776-57.1392-38.7072-11.0592-1.8432-22.1184-1.8432-33.1776-1.8432h-5.5296c-31.3344 0-60.8256 9.216-79.2576 35.0208-1.8432 7.3728-14.7456 18.432-3.6864 23.9616 23.9616-1.8432 51.6096-3.6864 68.1984 16.5888 0 18.432 11.0592 42.3936-7.3728 51.6096-16.5888-14.7456-36.864 7.3728-53.4528-5.5296-9.216-5.5296-12.9024 0-16.5888 7.3728-5.5296 47.9232 20.2752 99.5328 64.512 125.3376 18.432 7.3728 42.3936 12.9024 60.8256 3.6864 46.08-20.2752 64.512-70.0416 71.8848-114.2784-3.6864-7.3728-3.6864-23.9616-16.5888-23.9616-12.9024 9.216-33.1776 3.6864-47.9232 0-9.216 1.8432-9.216 14.7456-18.432 16.5888l-5.5296-5.5296c-5.5296-20.2752-7.3728-51.6096 11.0592-64.512 22.1184-9.216 47.9232-12.9024 70.0416-5.5296 5.5296-7.3728 0-12.9024-1.8432-20.2752z m-188.0064 49.7664c0 5.5296 0 12.9024 7.3728 11.0592 11.0592-16.5888 33.1776-3.6864 46.08-1.8432V382.976c-7.3728-11.0592-22.1184-16.5888-36.864-16.5888-3.6864 0-7.3728 0-11.0592 1.8432-3.6864 0-7.3728 5.5296-5.5296 11.0592zM294.5024 327.68c-40.5504-25.8048-90.3168-1.8432-127.1808 12.9024-3.6864-35.0208-18.432-66.3552-47.9232-90.3168l-11.0592-5.5296c-1.8432 0-3.6864 0-5.5296 3.6864 12.9024 82.944-40.5504 140.0832-77.4144 202.752 12.9024 11.0592 33.1776 9.216 47.9232 5.5296 40.5504-16.5888 79.2576-44.2368 127.1808-35.0208 14.7456-23.9616 38.7072-47.9232 57.1392-66.3552 11.0592-9.216 27.648-16.5888 36.864-27.648z m722.5344 213.8112c0 12.9024 1.8432 23.9616-3.6864 36.864-53.4528 14.7456-86.6304-40.5504-138.24-31.3344L880.64 576.512c47.9232 1.8432 77.4144 46.08 125.3376 44.2368-7.3728 12.9024 3.6864 49.7664-27.648 35.0208-31.3344-7.3728-55.296-35.0208-90.3168-35.0208-3.6864 7.3728-1.8432 18.432-1.8432 27.648 36.864 5.5296 62.6688 36.864 99.5328 42.3936-3.6864 12.9024-7.3728 27.648-16.5888 35.0208-29.4912-7.3728-53.4528-33.1776-84.7872-33.1776l-5.5296 25.8048c29.4912 0 49.7664 27.648 77.4144 35.0208 0 11.0592-9.216 20.2752-14.7456 31.3344-23.9616-7.3728-42.3936-27.648-70.0416-25.8048 0-11.0592 5.5296-22.1184 3.6864-33.1776-31.3344 9.216-51.6096-20.2752-75.5712-36.864 0-57.1392-60.8256-94.0032-62.6688-145.6128 0-11.0592 1.8432-22.1184 5.5296-33.1776 20.2752-44.2368 12.9024-103.2192-7.3728-145.6128-7.3728-11.0592-18.432-20.2752-29.4912-25.8048 16.5888 33.1776 35.0208 71.8848 25.8048 114.2784-1.8432 31.3344-20.2752 62.6688-20.2752 92.16 0 11.0592 1.8432 22.1184 9.216 33.1776 25.8048 44.2368 70.0416 86.6304 53.4528 143.7696-5.5296 16.5888-18.432 31.3344-22.1184 47.9232 29.4912 23.9616 57.1392 51.6096 95.8464 53.4528 12.9024-9.216 5.5296-47.9232 35.0208-29.4912l42.3936 20.2752c-3.6864 11.0592-12.9024 20.2752-20.2752 29.4912-16.5888-7.3728-31.3344-16.5888-51.6096-16.5888-5.5296 5.5296-11.0592 12.9024-11.0592 22.1184 12.9024 1.8432 25.8048 7.3728 38.7072 16.5888-5.5296 11.0592-16.5888 18.432-25.8048 27.648l-31.3344-11.0592c-5.5296 7.3728-16.5888 16.5888-12.9024 23.9616 7.3728 3.6864 14.7456 7.3728 20.2752 12.9024-14.7456 14.7456-31.3344 25.8048-49.7664 35.0208-14.7456-47.9232-64.512-82.944-58.9824-138.24l-1.8432-1.8432c-11.0592 12.9024-7.3728 33.1776-7.3728 49.7664 14.7456 35.0208 46.08 62.6688 51.6096 101.376-5.5296 9.216-18.432 11.0592-29.4912 16.5888 1.8432-70.0416-105.0624-121.6512-36.864-193.536 22.1184-35.0208 60.8256-68.1984 47.9232-114.2784-12.9024-46.08-62.6688-73.728-62.6688-125.3376v-3.6864c11.0592-53.4528 44.2368-110.592 16.5888-167.7312-7.3728-22.1184-25.8048-49.7664-47.9232-58.9824 35.0208 40.5504 47.9232 105.0624 29.4912 158.5152-9.216 22.1184-23.9616 46.08-25.8048 71.8848 0 12.9024 1.8432 25.8048 11.0592 38.7072 25.8048 42.3936 71.8848 90.3168 46.08 145.6128-29.4912 44.2368-82.944 90.3168-53.4528 149.2992 20.2752 35.0208 53.4528 70.0416 44.2368 114.2784l-36.864 1.8432c22.1184-81.1008-90.3168-129.024-42.3936-208.2816 29.4912-42.3936 81.1008-82.944 51.6096-141.9264-18.432-35.0208-53.4528-57.1392-53.4528-101.376l1.8432-7.3728c11.0592-62.6688 60.8256-123.4944 25.8048-189.8496-9.216-20.2752-25.8048-40.5504-46.08-51.6096l-1.8432 1.8432c38.7072 38.7072 51.6096 99.5328 29.4912 151.1424-9.216 29.4912-31.3344 58.9824-35.0208 90.3168-1.8432 14.7456 0 29.4912 7.3728 46.08 25.8048 38.7072 68.1984 81.1008 40.5504 132.7104-29.4912 42.3936-77.4144 82.944-57.1392 138.24 20.2752 47.9232 64.512 94.0032 40.5504 152.9856l-31.3344 5.5296c27.648-57.1392-14.7456-114.2784-38.7072-165.888-29.4912-71.8848 64.512-106.9056 66.3552-171.4176 0-42.3936-46.08-66.3552-55.296-105.0624-20.2752-16.5888-40.5504 7.3728-62.6688 1.8432-16.5888 3.6864-44.2368-23.9616-53.4528 5.5296-12.9024 42.3936-68.1984 75.5712-44.2368 125.3376 23.9616 46.08 79.2576 79.2576 60.8256 138.24-16.5888 55.296-71.8848 106.9056-38.7072 171.4176-14.7456-3.6864-40.5504 3.6864-40.5504-18.432-22.1184-77.4144 71.8848-121.6512 42.3936-199.0656-12.9024-47.9232-73.728-73.728-60.8256-129.024 9.216-46.08 62.6688-79.2576 55.296-130.8672 0-3.6864-1.8432-9.216-3.6864-12.9024-20.2752-55.296-58.9824-110.592-35.0208-175.104 7.3728-18.432 20.2752-33.1776 31.3344-49.7664-38.7072 20.2752-57.1392 62.6688-57.1392 106.9056-1.8432 47.9232 33.1776 88.4736 38.7072 130.8672 1.8432 18.432 0 35.0208-12.9024 55.296-25.8048 33.1776-57.1392 70.0416-42.3936 114.2784 14.7456 44.2368 70.0416 71.8848 66.3552 123.4944 0 60.8256-71.8848 99.5328-51.6096 169.5744L325.8368 991.232c-14.7456-60.8256 51.6096-92.16 51.6096-149.2992 9.216-64.512-73.728-88.4736-68.1984-152.9856 0-47.9232 42.3936-79.2576 60.8256-119.808 3.6864-9.216 3.6864-18.432 3.6864-27.648-1.8432-44.2368-42.3936-79.2576-36.864-130.8672 1.8432-36.864 14.7456-70.0416 38.7072-97.6896-33.1776 12.9024-47.9232 51.6096-57.1392 82.944C301.8752 447.488 340.5824 493.568 344.2688 539.648c1.8432 20.2752-3.6864 40.5504-22.1184 60.8256-27.648 33.1776-55.296 73.728-35.0208 117.9648 20.2752 47.9232 88.4736 84.7872 58.9824 145.6128-16.5888 38.7072-53.4528 66.3552-51.6096 110.592-9.216-3.6864-20.2752-9.216-29.4912-16.5888 0-57.1392 81.1008-92.16 42.3936-152.9856-3.6864 11.0592-3.6864 27.648-7.3728 40.5504-12.9024 35.0208-42.3936 62.6688-53.4528 99.5328-18.432-7.3728-36.864-22.1184-51.6096-36.864l20.2752-12.9024c-1.8432-7.3728-9.216-14.7456-12.9024-20.2752-12.9024-1.8432-22.1184 7.3728-33.1776 11.0592-9.216-9.216-18.432-16.5888-25.8048-25.8048 7.3728-20.2752 60.8256-3.6864 33.1776-35.0208-18.432-11.0592-36.864 5.5296-53.4528 12.9024l-22.1184-27.648c18.432-11.0592 36.864-27.648 60.8256-22.1184 5.5296 11.0592 5.5296 25.8048 16.5888 31.3344 38.7072 0 68.1984-31.3344 97.6896-53.4528-20.2752-31.3344-38.7072-73.728-20.2752-112.4352 14.7456-38.7072 53.4528-70.0416 55.296-112.4352 0-9.216-1.8432-20.2752-5.5296-31.3344-20.2752-53.4528-27.648-125.3376 11.0592-171.4176-22.1184 5.5296-35.0208 33.1776-42.3936 53.4528-23.9616 51.6096 5.5296 99.5328 7.3728 149.2992 0 9.216 0 18.432-1.8432 27.648-20.2752 40.5504-53.4528 77.4144-58.9824 123.4944-23.9616 14.7456-42.3936 40.5504-75.5712 31.3344-1.8432 9.216 1.8432 22.1184 3.6864 31.3344-25.8048-1.8432-44.2368 18.432-66.3552 27.648-11.0592-3.6864-14.7456-18.432-20.2752-29.4912 25.8048-9.216 44.2368-35.0208 75.5712-35.0208 3.6864-9.216-1.8432-18.432-3.6864-27.648-36.864-16.5888-95.8464 81.1008-101.376-3.6864 36.864-1.8432 60.8256-36.864 97.6896-40.5504l1.8432-27.648c-42.3936-3.6864-68.1984 38.7072-110.592 35.0208l-9.216-36.864c47.9232 3.6864 77.4144-40.5504 123.4944-42.3936 5.5296-7.3728 7.3728-20.2752 7.3728-31.3344-46.08-5.5296-81.1008 49.7664-134.5536 33.1776 0 0-1.8432-23.9616-3.6864-36.864v-9.216c47.9232 18.432 90.3168-16.5888 130.8672-33.1776 11.0592-3.6864 25.8048 1.8432 31.3344-9.216 0-9.216 16.5888-18.432 1.8432-25.8048C110.1824 454.8608 69.632 524.9024 8.8064 493.568L5.12 484.352C16.1792 312.9344 113.8688 145.2032 277.9136 64.1024c66.3552-36.864 147.456-57.1392 230.4-57.1392 99.5328 0 199.0656 25.8048 274.6368 77.4144 71.8848 44.2368 141.9264 117.9648 178.7904 191.6928 36.864 64.512 53.4528 138.24 57.1392 215.6544-62.6688 47.9232-105.0624-44.2368-169.5744-23.9616 3.6864 9.216 5.5296 20.2752 12.9024 29.4912 57.1392 0 95.8464 58.9824 154.8288 35.0208v9.216zM508.3136 183.9104c18.432 11.0592 36.864 23.9616 51.6096 38.7072l-5.5296 5.5296c-29.4912-3.6864-58.9824 0-86.6304 1.8432-3.6864-3.6864-9.216-7.3728-3.6864-11.0592l44.2368-35.0208z m0 0" fill="#333333" p-id="4896"></path><path d="M484.352 454.8608c11.0592 1.8432 12.9024 5.5296 22.1184 7.3728 9.216 0 7.3728-1.8432 23.9616-7.3728 1.8432 0 1.8432-1.8432 0-3.6864-9.216-9.216-16.5888-3.6864-22.1184-1.8432-7.3728 0-16.5888-7.3728-23.9616 1.8432-1.8432 0-1.8432 1.8432 0 3.6864" fill="#333333" p-id="4897"></path></svg>